<svg width="51" height="46" viewBox="0 0 51 46" fill="none" xmlns="http://www.w3.org/2000/svg">
<path d="M49.8746 14.2895C42.1867 6.21401 43.6053 7.21428 42.6285 6.86707H27.6747L21.9916 0.785322C21.8527 0.642325 21.6645 0.560148 21.467 0.556244H3.70375C2.96276 0.557137 2.25237 0.857444 1.72841 1.39129C1.20445 1.92514 0.909705 2.64893 0.908829 3.4039V36.2848C0.909705 37.0398 1.20445 37.7636 1.72841 38.2974C2.25237 38.8313 2.96276 39.1316 3.70375 39.1325H22.0716V42.5961C22.0724 43.3511 22.3672 44.0749 22.8911 44.6087C23.4151 45.1425 24.1255 45.4428 24.8665 45.4437H47.2962C48.0372 45.4428 48.7476 45.1425 49.2716 44.6087C49.7955 44.0749 50.0903 43.3511 50.0912 42.5961V14.8156C50.0874 14.6186 50.0099 14.4304 49.8746 14.2895ZM43.3544 9.45359L47.6747 14.0773H43.3544V9.45359ZM31.6198 27.2567C29.6737 27.2567 25.4917 27.2567 23.5208 27.2567V25.0545H31.6198C31.812 25.0545 31.9963 24.9767 32.1322 24.8383C32.2681 24.6998 32.3445 24.5121 32.3445 24.3162V21.9803L37.6445 26.1514L32.3445 30.325V27.995C32.3445 27.7992 32.2681 27.6114 32.1322 27.4729C31.9963 27.3345 31.812 27.2567 31.6198 27.2567ZM19.3814 18.7412H27.4792V20.9476H19.3814C19.2862 20.9475 19.192 20.9666 19.104 21.0037C19.0161 21.0407 18.9362 21.0951 18.8689 21.1637C18.8016 21.2323 18.7482 21.3137 18.7118 21.4033C18.6754 21.4929 18.6567 21.5889 18.6568 21.6859V24.0163L13.3568 19.8423L18.6568 15.6712V18.0029C18.6567 18.0999 18.6754 18.1959 18.7118 18.2855C18.7482 18.3751 18.8016 18.4565 18.8689 18.5251C18.9362 18.5936 19.0161 18.648 19.104 18.6851C19.192 18.7222 19.2862 18.7412 19.3814 18.7412ZM26.5124 7.76609H22.1916V3.14107L26.5124 7.76609ZM2.35805 36.2848V3.4039C2.35849 3.0404 2.50041 2.69192 2.75268 2.43488C3.00495 2.17785 3.34698 2.03325 3.70375 2.03281H20.7424V8.50437C20.7424 8.70017 20.8188 8.88796 20.9547 9.02641C21.0905 9.16487 21.2749 9.24265 21.467 9.24265H27.4792V17.2646H20.106V14.168C20.1041 14.0309 20.065 13.8969 19.993 13.781C19.9209 13.665 19.8188 13.5717 19.6979 13.5112C19.5771 13.4508 19.4421 13.4256 19.308 13.4385C19.174 13.4513 19.046 13.5018 18.9384 13.5842L11.7295 19.258C11.6426 19.3274 11.5724 19.4161 11.5241 19.5173C11.4758 19.6185 11.4507 19.7295 11.4507 19.842C11.4507 19.9546 11.4758 20.0656 11.5241 20.1668C11.5724 20.268 11.6426 20.3567 11.7295 20.4261L18.9379 26.1046C19.0647 26.2051 19.2208 26.2596 19.3814 26.2594C19.5732 26.2582 19.7568 26.18 19.8925 26.0418C20.0281 25.9036 20.1048 25.7165 20.106 25.5211V22.4241H27.4792V23.578H22.7962C22.604 23.578 22.4197 23.6557 22.2838 23.7942C22.1479 23.9327 22.0716 24.1204 22.0716 24.3162V27.995C22.0716 28.1908 22.1479 28.3786 22.2838 28.517C22.4197 28.6555 22.604 28.7333 22.7962 28.7333H27.4792V36.2848C27.4788 36.6483 27.3369 36.9968 27.0846 37.2539C26.8323 37.5109 26.4903 37.6555 26.1335 37.6559H3.70375C3.34698 37.6555 3.00495 37.5109 2.75268 37.2539C2.50041 36.9968 2.35849 36.6483 2.35805 36.2848ZM48.642 42.5961C48.6415 42.9596 48.4996 43.3081 48.2473 43.5651C47.995 43.8221 47.653 43.9667 47.2962 43.9672H24.8665C24.5097 43.9667 24.1677 43.8221 23.9154 43.5651C23.6631 43.3081 23.5212 42.9596 23.5208 42.5961V39.1325H26.1335C26.8745 39.1316 27.5849 38.8313 28.1089 38.2974C28.6328 37.7636 28.9276 37.0398 28.9284 36.2848V28.7333H30.8952V31.8298C30.8952 31.9679 30.9332 32.1031 31.0049 32.2203C31.0765 32.3374 31.179 32.4318 31.3006 32.4926C31.423 32.5504 31.5584 32.5736 31.6926 32.5598C31.8268 32.5459 31.9548 32.4954 32.0633 32.4137L39.2717 26.7353C39.3585 26.6657 39.4286 26.577 39.4768 26.4758C39.525 26.3747 39.55 26.2637 39.55 26.1512C39.55 26.0387 39.525 25.9277 39.4768 25.8266C39.4286 25.7254 39.3585 25.6367 39.2717 25.5671L32.0629 19.8929C31.9557 19.8085 31.8274 19.7564 31.6927 19.7425C31.5579 19.7287 31.422 19.7536 31.3004 19.8144C31.1788 19.8753 31.0764 19.9696 31.0048 20.0868C30.9332 20.2039 30.8952 20.3392 30.8952 20.4772V23.578H28.9284C28.9284 22.376 28.9309 19.2419 28.9284 18.0029C28.9243 17.9898 28.9284 8.51871 28.9284 8.50395C28.9256 8.45036 28.9197 8.39698 28.911 8.34406H41.9039V14.8156C41.9039 14.9127 41.9227 15.0088 41.9592 15.0984C41.9957 15.1881 42.0492 15.2695 42.1166 15.3381C42.184 15.4067 42.264 15.461 42.3521 15.4981C42.4401 15.5351 42.5345 15.5541 42.6298 15.5539H48.642V42.5961Z" fill="#00B8C6"/>
<path d="M37.3451 20.4789C37.3451 20.6747 37.4214 20.8625 37.5573 21.0009C37.6932 21.1394 37.8775 21.2172 38.0697 21.2172H44.8665C45.0587 21.2172 45.243 21.1394 45.3789 21.0009C45.5148 20.8625 45.5911 20.6747 45.5911 20.4789C45.5911 20.2831 45.5148 20.0953 45.3789 19.9568C45.243 19.8184 45.0587 19.7406 44.8665 19.7406H38.0697C37.8776 19.7407 37.6933 19.8185 37.5574 19.957C37.4216 20.0954 37.3452 20.2831 37.3451 20.4789Z" fill="#00B8C6"/>
<path d="M44.8665 25.4169H41.4683C41.2761 25.4169 41.0918 25.4947 40.9559 25.6331C40.8201 25.7716 40.7437 25.9594 40.7437 26.1552C40.7437 26.351 40.8201 26.5388 40.9559 26.6772C41.0918 26.8157 41.2761 26.8935 41.4683 26.8935H44.8665C45.0587 26.8935 45.243 26.8157 45.3789 26.6772C45.5148 26.5388 45.5911 26.351 45.5911 26.1552C45.5911 25.9594 45.5148 25.7716 45.3789 25.6331C45.243 25.4947 45.0587 25.4169 44.8665 25.4169Z" fill="#00B8C6"/>
<path d="M44.8665 31.0937H38.0697C37.8775 31.0937 37.6932 31.1714 37.5573 31.3099C37.4214 31.4484 37.3451 31.6361 37.3451 31.8319C37.3451 32.0277 37.4214 32.2155 37.5573 32.354C37.6932 32.4924 37.8775 32.5702 38.0697 32.5702H44.8665C45.0587 32.5702 45.243 32.4924 45.3789 32.354C45.5148 32.2155 45.5911 32.0277 45.5911 31.8319C45.5911 31.6361 45.5148 31.4484 45.3789 31.3099C45.243 31.1714 45.0587 31.0937 44.8665 31.0937Z" fill="#00B8C6"/>
<path d="M6.13306 14.9063H12.9303C13.1225 14.9063 13.3068 14.8285 13.4427 14.6901C13.5786 14.5516 13.6549 14.3638 13.6549 14.168C13.6549 13.9722 13.5786 13.7845 13.4427 13.646C13.3068 13.5075 13.1225 13.4298 12.9303 13.4298H6.13306C5.94088 13.4298 5.75657 13.5075 5.62068 13.646C5.48479 13.7845 5.40845 13.9722 5.40845 14.168C5.40845 14.3638 5.48479 14.5516 5.62068 14.6901C5.75657 14.8285 5.94088 14.9063 6.13306 14.9063Z" fill="#00B8C6"/>
<path d="M6.13306 20.5826H9.53168C9.72386 20.5826 9.90817 20.5049 10.0441 20.3664C10.1799 20.2279 10.2563 20.0402 10.2563 19.8444C10.2563 19.6486 10.1799 19.4608 10.0441 19.3223C9.90817 19.1839 9.72386 19.1061 9.53168 19.1061H6.13306C5.94088 19.1061 5.75657 19.1839 5.62068 19.3223C5.48479 19.4608 5.40845 19.6486 5.40845 19.8444C5.40845 20.0402 5.48479 20.2279 5.62068 20.3664C5.75657 20.5049 5.94088 20.5826 6.13306 20.5826Z" fill="#00B8C6"/>
<path d="M12.9303 24.7828H6.13306C5.94088 24.7828 5.75657 24.8606 5.62068 24.9991C5.48479 25.1375 5.40845 25.3253 5.40845 25.5211C5.40845 25.7169 5.48479 25.9047 5.62068 26.0432C5.75657 26.1816 5.94088 26.2594 6.13306 26.2594H12.9303C13.1225 26.2594 13.3068 26.1816 13.4427 26.0432C13.5786 25.9047 13.6549 25.7169 13.6549 25.5211C13.6549 25.3253 13.5786 25.1375 13.4427 24.9991C13.3068 24.8606 13.1225 24.7828 12.9303 24.7828Z" fill="#00B8C6"/>
</svg>
