<svg width="46" height="48" viewBox="0 0 46 48" fill="none" xmlns="http://www.w3.org/2000/svg">
<path d="M8.09487 20.5219C7.29847 19.7586 6.70671 18.7725 6.4235 17.6417C6.32909 17.265 5.94687 17.0362 5.57056 17.1305C5.19387 17.2248 4.96503 17.6066 5.05934 17.9834C5.88781 21.2913 8.8504 23.6017 12.2638 23.6017C16.3595 23.6017 19.6915 20.2697 19.6915 16.1741C19.6915 12.0786 16.3595 8.7466 12.2638 8.7466C8.85265 8.7466 5.89062 11.0549 5.06046 14.36C4.96587 14.7367 5.19453 15.1186 5.57112 15.2133C5.94725 15.3074 6.32965 15.0792 6.42443 14.7026C7.09718 12.0238 9.4985 10.1529 12.2638 10.1529C15.584 10.1529 18.2852 12.8541 18.2852 16.1742C18.2852 17.8793 17.5716 19.4199 16.4289 20.5164C16.005 19.9349 15.468 19.4526 14.8518 19.0954C15.6591 18.3794 16.1692 17.3355 16.1692 16.1742C16.1692 14.0208 14.4173 12.269 12.2639 12.269C10.1106 12.269 8.35878 14.0209 8.35878 16.1742C8.35878 17.3355 8.86887 18.3794 9.67615 19.0954C9.05778 19.4536 8.51928 19.9378 8.09487 20.5219ZM12.2637 13.675C13.6417 13.675 14.7627 14.7961 14.7627 16.174C14.7627 17.552 13.6417 18.6729 12.2637 18.6729C10.8858 18.6729 9.76484 17.552 9.76484 16.174C9.76484 14.7961 10.8858 13.675 12.2637 13.675ZM11.2489 19.9447C11.5727 20.0319 11.9127 20.0793 12.2638 20.0793C12.6149 20.0793 12.955 20.0319 13.2789 19.9447C14.1032 20.1748 14.8153 20.6758 15.3107 21.3644C14.4162 21.8915 13.3752 22.1953 12.2639 22.1953C11.1602 22.1953 10.1152 21.8966 9.21443 21.3684C9.70972 20.6778 10.423 20.1754 11.2489 19.9447Z" fill="#00B8C6"/>
<path d="M9.11246 35.4575H7.04387C6.60202 35.4575 6.24258 35.0979 6.24258 34.6561C6.24258 34.2677 5.92787 33.953 5.53946 33.953C5.15105 33.953 4.83633 34.2677 4.83633 34.6561C4.83633 35.8733 5.82662 36.8637 7.04387 36.8637H7.37499V37.5396C7.37499 37.928 7.68971 38.2428 8.07812 38.2428C8.46652 38.2428 8.78124 37.928 8.78124 37.5396V36.8637H9.11246C10.3296 36.8637 11.32 35.8734 11.32 34.6561V34.2173C11.32 33.0001 10.3297 32.0097 9.11246 32.0097H7.04387C6.60202 32.0097 6.24258 31.6503 6.24258 31.2084V30.7696C6.24258 30.3277 6.60202 29.9683 7.04387 29.9683H9.11246C9.5543 29.9683 9.91374 30.3277 9.91374 30.7696C9.91374 31.158 10.2285 31.4727 10.6169 31.4727C11.0053 31.4727 11.32 31.158 11.32 30.7696C11.32 29.5524 10.3297 28.562 9.11246 28.562H8.78124V27.8861C8.78124 27.4977 8.46652 27.183 8.07812 27.183C7.68971 27.183 7.37499 27.4977 7.37499 27.8861V28.562H7.04387C5.82671 28.562 4.83633 29.5523 4.83633 30.7696V31.2084C4.83633 32.4256 5.82662 33.416 7.04387 33.416H9.11246C9.5543 33.416 9.91374 33.7755 9.91374 34.2173V34.6561C9.91374 35.0979 9.5543 35.4575 9.11246 35.4575Z" fill="#00B8C6"/>
<path d="M17.6916 27.7596H13.2715C12.8831 27.7596 12.5684 28.0744 12.5684 28.4628C12.5684 28.8512 12.8831 29.1659 13.2715 29.1659H17.6916C18.08 29.1659 18.3947 28.8512 18.3947 28.4628C18.3947 28.0744 18.08 27.7596 17.6916 27.7596Z" fill="#00B8C6"/>
<path d="M17.6916 30.7538H13.2715C12.8831 30.7538 12.5684 31.0685 12.5684 31.4569C12.5684 31.8453 12.8831 32.16 13.2715 32.16H17.6916C18.08 32.16 18.3947 31.8453 18.3947 31.4569C18.3947 31.0685 18.08 30.7538 17.6916 30.7538Z" fill="#00B8C6"/>
<path d="M17.6916 33.748H13.2715C12.8831 33.748 12.5684 34.0628 12.5684 34.4512C12.5684 34.8396 12.8831 35.1543 13.2715 35.1543H17.6916C18.08 35.1543 18.3947 34.8396 18.3947 34.4512C18.3947 34.0628 18.08 33.748 17.6916 33.748Z" fill="#00B8C6"/>
<path d="M17.6916 36.7421H13.2715C12.8831 36.7421 12.5684 37.0568 12.5684 37.4453C12.5684 37.8337 12.8831 38.1484 13.2715 38.1484H17.6916C18.08 38.1484 18.3947 37.8337 18.3947 37.4453C18.3947 37.0568 18.08 36.7421 17.6916 36.7421Z" fill="#00B8C6"/>
<path d="M5.53946 41.855H17.6916C18.08 41.855 18.3947 41.5403 18.3947 41.1519C18.3947 40.7634 18.08 40.4487 17.6916 40.4487H5.53946C5.15105 40.4487 4.83633 40.7634 4.83633 41.1519C4.83633 41.5403 5.15105 41.855 5.53946 41.855Z" fill="#00B8C6"/>
<path d="M30.2211 10.8222H21.8725C21.4841 10.8222 21.1693 11.1369 21.1693 11.5253C21.1693 11.9138 21.4841 12.2285 21.8725 12.2285H30.2211C30.6095 12.2285 30.9242 11.9138 30.9242 11.5253C30.9242 11.1369 30.6095 10.8222 30.2211 10.8222Z" fill="#00B8C6"/>
<path d="M21.8726 15.7964H23.7837C24.1722 15.7964 24.4869 15.4817 24.4869 15.0933C24.4869 14.7049 24.1722 14.3902 23.7837 14.3902H21.8726C21.4842 14.3902 21.1694 14.7049 21.1694 15.0933C21.1694 15.4817 21.4842 15.7964 21.8726 15.7964Z" fill="#00B8C6"/>
<path d="M30.2211 14.3902H26.0897C25.7013 14.3902 25.3866 14.7049 25.3866 15.0933C25.3866 15.4817 25.7013 15.7964 26.0897 15.7964H30.2211C30.6095 15.7964 30.9242 15.4817 30.9242 15.0933C30.9242 14.7049 30.6095 14.3902 30.2211 14.3902Z" fill="#00B8C6"/>
<path d="M21.8726 19.3644H30.2212C30.6096 19.3644 30.9243 19.0497 30.9243 18.6613C30.9243 18.2729 30.6096 17.9582 30.2212 17.9582H21.8726C21.4842 17.9582 21.1694 18.2729 21.1694 18.6613C21.1694 19.0497 21.4842 19.3644 21.8726 19.3644Z" fill="#00B8C6"/>
<path d="M45.2904 24.7312C45.0782 23.6301 44.1074 22.8307 42.9821 22.8307H37.8285C36.9763 22.8307 36.1507 22.596 35.4327 22.1699V6.19547C35.4327 6.19481 35.4328 6.19425 35.4328 6.19369V2.58319C35.4328 1.15875 34.274 0 32.8496 0H2.91098C1.48654 0 0.327789 1.15875 0.327789 2.58319V6.19369V37.1228C0.327789 37.5112 0.642508 37.826 1.03091 37.826C1.41932 37.826 1.73404 37.5112 1.73404 37.1228V6.89672H34.0264V20.8931C34.009 20.8694 33.9904 20.8468 33.9734 20.8227C33.7103 20.4502 33.2828 20.2279 32.83 20.2279C32.8299 20.2279 32.8299 20.2279 32.8298 20.2279C32.377 20.2279 31.9494 20.4502 31.6861 20.8227C30.7976 22.0801 29.3563 22.8307 27.831 22.8307H22.6775C21.5522 22.8307 20.5815 23.6299 20.3692 24.7311C20.1158 26.0455 19.9874 27.3907 19.9874 28.7291C19.9874 32.8021 21.1487 36.7564 23.3458 40.1646C24.7281 42.3089 26.4751 44.173 28.498 45.6808H2.91098C2.26204 45.6808 1.73404 45.1528 1.73404 44.5039V40.4041C1.73404 40.0157 1.41932 39.701 1.03091 39.701C0.642508 39.701 0.327789 40.0157 0.327789 40.4041V44.5039C0.327789 45.9282 1.48654 47.0871 2.91098 47.0871H30.6452C31.1044 47.3495 31.574 47.5957 32.0539 47.824C32.3005 47.9413 32.5651 48 32.8298 48C33.0944 48 33.3591 47.9413 33.6057 47.824C37.1634 46.1314 40.1746 43.4827 42.3138 40.1646C44.5109 36.7564 45.6722 32.8022 45.6722 28.7291C45.6722 27.3907 45.5438 26.0454 45.2904 24.7312ZM34.0265 2.58319V5.49056H8.00554V1.40625H32.8497C33.4985 1.40625 34.0265 1.93425 34.0265 2.58319ZM1.73404 2.58319C1.73404 1.93425 2.26204 1.40625 2.91098 1.40625H6.59929V5.49047H1.73404V2.58319ZM41.1318 39.4026C39.1344 42.501 36.323 44.974 33.0015 46.5542C32.8922 46.606 32.7671 46.606 32.6579 46.5542C29.3364 44.974 26.525 42.501 24.5276 39.4026C22.4772 36.2221 21.3934 32.5312 21.3934 28.7291C21.3934 27.4797 21.5133 26.2241 21.7498 24.9972C21.8348 24.5567 22.2248 24.237 22.6774 24.237H27.8309C29.8082 24.237 31.6751 23.2679 32.8299 21.6413C33.9821 23.2669 35.85 24.237 37.8284 24.237H42.982C43.4345 24.237 43.8246 24.5567 43.9095 24.9972C44.146 26.2241 44.266 27.4796 44.266 28.7291C44.266 32.5312 43.1822 36.2221 41.1318 39.4026Z" fill="#00B8C6"/>
<path d="M32.8298 25.6348C29.2201 25.6348 26.0921 28.2018 25.392 31.7384C25.3166 32.1193 25.5643 32.4893 25.9452 32.5646C26.3259 32.6402 26.696 32.3923 26.7714 32.0114C27.3415 29.1313 29.8894 27.041 32.8297 27.041C36.2357 27.041 39.0067 29.812 39.0067 33.218C39.0067 36.6239 36.2357 39.3949 32.8297 39.3949C30.106 39.3949 27.6689 37.5705 26.9031 34.9584C26.7939 34.5857 26.403 34.3726 26.0306 34.4815C25.6578 34.5907 25.4444 34.9813 25.5536 35.3541C26.4938 38.5613 29.4857 40.8012 32.8296 40.8012C37.011 40.8012 40.4129 37.3995 40.4129 33.2181C40.4129 29.0366 37.0111 25.6348 32.8298 25.6348Z" fill="#00B8C6"/>
<path d="M32.1239 36.2374C32.3038 36.2374 32.4838 36.1687 32.6211 36.0315L37.0524 31.6003C37.327 31.3256 37.327 30.8805 37.0524 30.6059C36.7777 30.3315 36.3326 30.3313 36.058 30.6059L32.124 34.5399L29.9684 32.3842C29.6937 32.1097 29.2485 32.1097 28.974 32.3842C28.6994 32.6589 28.6994 33.1041 28.974 33.3786L31.6268 36.0315C31.764 36.1687 31.9439 36.2374 32.1239 36.2374Z" fill="#00B8C6"/>
</svg>
