<svg width="48" height="48" viewBox="0 0 48 48" fill="none" xmlns="http://www.w3.org/2000/svg">
<g clip-path="url(#clip0_1_3335)">
<path d="M47.9118 11.3822C47.7466 10.7679 47.3435 10.2441 46.792 9.92661C46.2402 9.60752 45.584 9.52121 44.9685 9.68642C44.3538 9.85201 43.83 10.2547 43.5125 10.8061L43.1126 11.5021C42.7326 11.2838 42.2471 11.4123 42.0249 11.7904L39.9932 15.2534L39.2972 14.8535C39.1129 14.7469 38.8934 14.718 38.6879 14.7734C38.4821 14.8293 38.3071 14.9644 38.2013 15.1495C37.9845 15.5319 38.1166 16.0178 38.4974 16.2373L39.1933 16.6372L32.3945 28.4192L30.7147 32.9067L29.9148 34.4021C29.4465 35.2168 29.4965 36.2296 30.0429 36.9939L28.2432 39.2013L27.7394 37.9379C27.5121 37.3747 26.986 36.9888 26.3811 36.9415C25.7757 36.8939 25.1957 37.1931 24.8837 37.7137L24.5958 38.2015L24.324 35.002C24.2615 34.2451 23.6753 33.6366 22.9215 33.5452C22.1673 33.4542 21.4534 33.9061 21.2124 34.6263L19.2448 40.5292C19.1073 40.9467 19.3323 41.3966 19.7486 41.5372C19.8267 41.5736 19.9107 41.5954 19.9966 41.6009C20.3403 41.6021 20.6465 41.383 20.7566 41.0572L22.7161 35.1543L22.9961 38.4014C23.0539 39.0943 23.5518 39.6704 24.2291 39.8274C24.9063 39.9844 25.607 39.686 25.9635 39.0896L26.2596 38.6014L26.7556 39.8575C26.9661 40.3867 27.4422 40.7643 28.0058 40.8483C28.5694 40.9323 29.1349 40.71 29.4911 40.2652L31.3548 37.9058C31.561 37.9597 31.7735 37.9867 31.9867 37.9859C32.844 37.9925 33.64 37.541 34.0743 36.8017L34.8741 35.466L37.9217 31.7627L44.7924 19.8366L45.4883 20.2366C45.6739 20.3428 45.809 20.5182 45.8641 20.7248C45.9195 20.9298 45.8906 21.1485 45.7844 21.3325L42.5849 26.8757C42.4643 27.0577 42.4232 27.2811 42.4717 27.4943C42.5201 27.7072 42.6533 27.8911 42.8408 28.0032C43.0251 28.1102 43.2446 28.1391 43.45 28.0837C43.6558 28.0278 43.8308 27.8927 43.9367 27.7076L47.1361 22.1644C47.4552 21.6125 47.5415 20.9564 47.3759 20.3409C47.2103 19.7261 46.8077 19.2024 46.2562 18.8849L45.5602 18.4849L47.5599 15.0214C47.7782 14.6414 47.6497 14.1564 47.272 13.9337L47.672 13.2378C47.9996 12.6773 48.0863 12.0079 47.9118 11.3822ZM44.8963 11.606C45.0021 11.4209 45.1779 11.2854 45.3845 11.2303C45.5899 11.1795 45.807 11.208 45.9922 11.3104C46.1777 11.4162 46.3128 11.592 46.3683 11.7982C46.419 12.0036 46.3905 12.2208 46.2882 12.4059L45.8883 13.1019L44.4963 12.302L44.8963 11.606ZM33.9942 33.9385L33.5943 33.7065L32.4105 33.0184L33.5462 29.9791L36.0657 31.4347L33.9942 33.9385ZM31.5946 36.2499C31.2568 36.0144 31.1529 35.5613 31.3548 35.202L31.7547 34.5064L33.1463 35.3063L32.7464 35.994C32.6343 36.1885 32.446 36.3268 32.2269 36.3756C32.0078 36.424 31.7786 36.3787 31.5946 36.2499ZM36.9777 30.1232L34.2102 28.5234L40.6091 17.437L43.3766 19.0368L36.9777 30.1232ZM44.1765 17.653L41.409 16.0533L43.0087 13.2858L45.7762 14.8855L44.1765 17.653Z" fill="#00B8C6"/>
<path d="M12.6217 35.8499L9.79052 38.6737L8.09471 36.9779C7.78266 36.6678 7.27884 36.6678 6.96678 36.9779C6.81524 37.1282 6.7301 37.3325 6.7301 37.5457C6.7301 37.759 6.81524 37.9636 6.96678 38.1136L8.66259 39.8094C8.96253 40.107 9.36793 40.2738 9.79052 40.2734C10.2154 40.2758 10.6244 40.109 10.9263 39.8094L13.7496 36.9779C14.0214 36.6604 14.0031 36.1874 13.7078 35.8921C13.4122 35.5965 12.9392 35.5781 12.6217 35.8499Z" fill="#00B8C6"/>
<path d="M3.19946 38.0015C3.19946 41.7567 6.24347 44.8003 9.9983 44.8003C13.7531 44.8003 16.7971 41.7567 16.7971 38.0015C16.7971 37.5598 16.439 37.2016 15.9973 37.2016C15.5556 37.2016 15.1974 37.5598 15.1974 38.0015C15.1974 40.8729 12.8697 43.2006 9.9983 43.2006C7.12691 43.2006 4.79918 40.8729 4.79918 38.0015C4.79918 35.1301 7.12691 32.8024 9.9983 32.8024C11.1239 32.7993 12.2194 33.1644 13.1177 33.8424C13.4711 34.1076 13.9726 34.0358 14.2374 33.6823C14.5026 33.3289 14.4311 32.8278 14.0777 32.5626C12.0175 31.0175 9.26092 30.7691 6.9578 31.9205C4.65429 33.0723 3.19946 35.4266 3.19946 38.0015Z" fill="#00B8C6"/>
<path d="M28.7951 6.4069C29.2368 6.4069 29.595 6.04915 29.595 5.60704C29.595 5.16532 29.2368 4.80717 28.7951 4.80717H7.99864C7.55692 4.80717 7.19878 5.16532 7.19878 5.60704V8.80649C7.19878 9.24861 7.55692 9.60636 7.99864 9.60636H28.7951C29.2368 9.60636 29.595 9.24861 29.595 8.80649C29.595 8.36477 29.2368 8.00663 28.7951 8.00663H8.7985V6.4069H28.7951Z" fill="#00B8C6"/>
<path d="M10.3982 11.2061C9.95651 11.2061 9.59837 11.5642 9.59837 12.0059C9.59837 12.4481 9.95651 12.8058 10.3982 12.8058H26.3955C26.8372 12.8058 27.1954 12.4481 27.1954 12.0059C27.1954 11.5642 26.8372 11.2061 26.3955 11.2061H10.3982Z" fill="#00B8C6"/>
<path d="M31.1947 16.8051H13.5977C13.156 16.8051 12.7978 17.1633 12.7978 17.605C12.7978 18.0471 13.156 18.4049 13.5977 18.4049H31.1947C31.6364 18.4049 31.9946 18.0471 31.9946 17.605C31.9946 17.1633 31.6364 16.8051 31.1947 16.8051Z" fill="#00B8C6"/>
<path d="M23.196 22.4042C23.196 21.9625 22.8379 21.6043 22.3962 21.6043H6.39891C5.95719 21.6043 5.59904 21.9625 5.59904 22.4042C5.59904 22.8463 5.95719 23.204 6.39891 23.204H22.3962C22.8379 23.204 23.196 22.8463 23.196 22.4042Z" fill="#00B8C6"/>
<path d="M31.1947 21.6043H25.5956C25.1539 21.6043 24.7958 21.9625 24.7958 22.4042C24.7958 22.8463 25.1539 23.204 25.5956 23.204H31.1947C31.6364 23.204 31.9945 22.8463 31.9945 22.4042C31.9945 21.9625 31.6364 21.6043 31.1947 21.6043Z" fill="#00B8C6"/>
<path d="M14.3975 27.2034C14.8393 27.2034 15.1974 26.8456 15.1974 26.4035C15.1974 25.9618 14.8393 25.6036 14.3975 25.6036H6.39891C5.95719 25.6036 5.59904 25.9618 5.59904 26.4035C5.59904 26.8456 5.95719 27.2034 6.39891 27.2034H14.3975Z" fill="#00B8C6"/>
<path d="M17.597 27.2034H23.196C23.6378 27.2034 23.9959 26.8456 23.9959 26.4035C23.9959 25.9618 23.6378 25.6036 23.196 25.6036H17.597C17.1553 25.6036 16.7971 25.9618 16.7971 26.4035C16.7971 26.8456 17.1553 27.2034 17.597 27.2034Z" fill="#00B8C6"/>
<path d="M35.9939 36.8017C35.5521 36.8017 35.194 37.1599 35.194 37.6016V45.6002C35.194 46.0423 34.8359 46.4001 34.3941 46.4001H2.39959C1.95787 46.4001 1.59973 46.0423 1.59973 45.6002V2.40759C1.59973 1.96587 1.95787 1.60772 2.39959 1.60772H34.3941C34.8359 1.60772 35.194 1.96587 35.194 2.40759V17.4292C35.194 17.871 35.5521 18.2291 35.9939 18.2291C36.4356 18.2291 36.7937 17.871 36.7937 17.4292V2.40759C36.7937 1.08242 35.7193 0.00799561 34.3941 0.00799561H2.39959C1.07443 0.00799561 0 1.08242 0 2.40759V45.6002C0 46.9258 1.07443 47.9998 2.39959 47.9998H34.3941C35.7193 47.9998 36.7937 46.9258 36.7937 45.6002V37.6016C36.7937 37.1599 36.4356 36.8017 35.9939 36.8017Z" fill="#00B8C6"/>
</g>
<defs>
<clipPath id="clip0_1_3335">
<rect width="48" height="48" fill="white"/>
</clipPath>
</defs>
</svg>
