<svg width="30" height="30" viewBox="0 0 30 30" fill="none" xmlns="http://www.w3.org/2000/svg">
<path fill-rule="evenodd" clip-rule="evenodd" d="M7.66665 0.333344C3.61655 0.333344 0.333313 3.61658 0.333313 7.66668V22.3333C0.333313 26.3835 3.61655 29.6667 7.66665 29.6667H22.3333C26.3834 29.6667 29.6666 26.3835 29.6666 22.3333V7.66668C29.6666 3.61658 26.3834 0.333344 22.3333 0.333344H7.66665ZM15 9.66668C12.0545 9.66668 9.66665 12.0545 9.66665 15C9.66665 17.9455 12.0545 20.3333 15 20.3333C17.9454 20.3333 20.3333 17.9455 20.3333 15C20.3333 12.0545 17.9454 9.66668 15 9.66668ZM6.99998 15C6.99998 10.5817 10.5817 7.00001 15 7.00001C19.4182 7.00001 23 10.5817 23 15C23 19.4183 19.4182 23 15 23C10.5817 23 6.99998 19.4183 6.99998 15ZM23 4.33334C21.5272 4.33334 20.3333 5.52725 20.3333 7.00001C20.3333 8.47277 21.5272 9.66668 23 9.66668C24.4728 9.66668 25.6666 8.47277 25.6666 7.00001C25.6666 5.52725 24.4728 4.33334 23 4.33334Z" fill="#00B8C6"/>
</svg>
